inDegrees=no
num_controls=7
num_derivatives=13
num_iterations=108
num_multipliers=7
num_parameters=0
num_slacks=7
num_states=26
objective=0.444832
objective_accelerations=0.057628
objective_balance=0.003417
objective_effort=0.023060
objective_height=0.355240
objective_ligament=0.005487
solver_duration=1567.857393
status=Solve_Succeeded
success=true
DataType=double
version=3
OpenSimVersion=4.5
endheader
time	/jointset/ground_pelvis/pelvis_tilt/value	/jointset/ground_pelvis/pelvis_tx/value	/jointset/ground_pelvis/pelvis_ty/value	/jointset/hip_l/hip_flexion_l/value	/jointset/hip_l/hip_adduction_l/value	/jointset/hip_l/hip_rotation_l/value	/jointset/back/lumbar_extension/value	/jointset/patellofemoral_l/patellar_flexion_l/value	/jointset/knee_l/knee_flexion_l/value	/jointset/knee_l/knee_adduction_l/value	/jointset/knee_l/knee_rotation_l/value	/jointset/ankle_l/ankle_angle_l/value	/jointset/subtalar_l/subtalar_angle_l/value	/jointset/ground_pelvis/pelvis_tilt/speed	/jointset/ground_pelvis/pelvis_tx/speed	/jointset/ground_pelvis/pelvis_ty/speed	/jointset/hip_l/hip_flexion_l/speed	/jointset/hip_l/hip_adduction_l/speed	/jointset/hip_l/hip_rotation_l/speed	/jointset/back/lumbar_extension/speed	/jointset/patellofemoral_l/patellar_flexion_l/speed	/jointset/knee_l/knee_flexion_l/speed	/jointset/knee_l/knee_adduction_l/speed	/jointset/knee_l/knee_rotation_l/speed	/jointset/ankle_l/ankle_angle_l/speed	/jointset/subtalar_l/subtalar_angle_l/speed	/forceset/tau_hip_flexion_l	/forceset/tau_hip_adduction_l	/forceset/tau_hip_rotation_l	/forceset/tau_knee_flexion_l	/forceset/tau_ankle_angle_l	/forceset/tau_subtalar_angle_l	/forceset/tau_lumbar_extension	lambda_cid13_p0	lambda_cid13_p1	lambda_cid13_p2	lambda_cid13_p3	lambda_cid13_p4	lambda_cid13_p5	lambda_cid14_p0	/jointset/ground_pelvis/pelvis_tilt/accel	/jointset/ground_pelvis/pelvis_tx/accel	/jointset/ground_pelvis/pelvis_ty/accel	/jointset/hip_l/hip_flexion_l/accel	/jointset/hip_l/hip_adduction_l/accel	/jointset/hip_l/hip_rotation_l/accel	/jointset/back/lumbar_extension/accel	/jointset/patellofemoral_l/patellar_flexion_l/accel	/jointset/knee_l/knee_flexion_l/accel	/jointset/knee_l/knee_adduction_l/accel	/jointset/knee_l/knee_rotation_l/accel	/jointset/ankle_l/ankle_angle_l/accel	/jointset/subtalar_l/subtalar_angle_l/accel	gamma_cid13_p0	gamma_cid13_p1	gamma_cid13_p2	gamma_cid13_p3	gamma_cid13_p4	gamma_cid13_p5	gamma_cid14_p0
1	-0.5453228765026421	-0.07726081951350817	0.5706874193778867	1.839044088295275	-0.468323338107047	0.01917023986415694	-0.2617818673560801	1.402324799813677	1.402324799813959	-0.0809914991894804	-0.1745243416592421	0.2325078233499724	-0.004017271097430559	-0.01739833433132897	0.0105602840928502	0.00159792411344347	0.0009075582267620841	-0.002400779283936171	0.003688155222043204	-2.894054958857991e-05	0.004299396367656141	0.004299396367657233	-0.003958297606827499	-0.0001584720068787457	0.02106115190507219	0.009382491788191276	-0.3321403415166896	0.01829998840207566	0.0005776760333516171	-0.3077743291196436	0.03345760844127945	0.02662568898380892	0.2839145533717837	-29.22762807618021	-6.853063935564784	1.221623956199617	7.758174304807817	-643.4636445914459	-44.71470019633043	-1.081712953486033	1.502026660765976	0.232272561004202	1.987056264070797	-6.840503583748377	-0.0904438558596167	-2.353521964925715	-0.01858521223568313	-5.346051216894179	-5.346051216894197	-0.6295720890187162	-0.03365871663074999	-0.6962417418579956	-0.4953882198350423	4.858642653613256e-09	1.890235223341028e-08	-1.620527031413704e-08	2.944494466843875e-09	-1.11444282992548e-09	2.209219946850415e-08	2.922929523003583e-09
1.01	-0.5454226957623309	-0.07714365812455493	0.5708026069338654	1.838712431982163	-0.4683508338532879	0.01908824909243553	-0.2617820749832759	1.402100607803361	1.402100607803356	-0.08105975535912416	-0.1745262549333502	0.232683787270184	-0.003946757567748634	-0.002565637270922264	0.0128742531402502	0.02143593160132255	-0.06723022825707528	-0.003093936790108774	-0.02008230805690543	-1.197453831387953e-05	-0.04913674620129969	-0.04913674620129541	-0.009692326556110915	-0.0002211257518188518	0.01412489737540674	0.004721579100911866	-0.3320462797098392	0.01839503289621629	0.0005618387455914961	-0.3076293774805288	0.03331037262025617	0.02664708093152186	0.2838450901787884	-29.26229818019102	-6.860255717070794	1.227307183692437	7.69419165271447	-643.3274910421969	-44.72832229369288	-1.085757990821305	1.473872073523617	0.2312987118784701	1.981622346478388	-6.799128730519774	-0.05808740816452528	-2.388213919650477	0.01192906041179478	-5.34223599354264	-5.342235993542143	-0.5452302849794862	0.007897544213000433	-0.6933270538881485	-0.4512426830668689	-3.566709605150812e-09	9.68600481112409e-09	2.612037337335935e-08	3.587984104571972e-09	-1.150765937340273e-08	7.404376550677797e-08	-9.617974634796612e-09
1.02	-0.5453741918824474	-0.07700328911807355	0.5711160644357893	1.837699655294255	-0.4683851283166235	0.01876867260588764	-0.2617820946398378	1.401342086324025	1.401342086323729	-0.0811853342156653	-0.1745287014953249	0.2327901866960262	-0.003922813142918003	0.01226629358330827	0.01520180759847481	0.04125191330248455	-0.1353165167336466	-0.003760522703027448	-0.04382898774669509	8.653577070726877e-06	-0.10256649743611	-0.1025664974361026	-0.01542283498924611	-0.0002651295912105342	0.007148253031048478	6.867081793537156e-05	-0.3319522179029548	0.01849007739039975	0.000546001457939715	-0.3074844258414136	0.03316313679923966	0.02666847287929289	0.283775626985822	-29.30286463683034	-6.866349338658416	1.232740279698728	7.653345022571438	-643.2748956311041	-44.71943423967908	-1.098994491920817	1.501873419530733	0.2349896431691269	1.982651106727385	-6.830203982295168	-0.08512953720881121	-2.348765247093902	-0.01785279141372978	-5.34477295006509	-5.344772950065115	-0.6288679857890629	-0.02992873552102507	-0.7043197047965494	-0.4937873389744281	-1.115226526457663e-08	2.613339562933569e-09	6.908079001040004e-08	4.879311917168953e-09	-2.141785609883586e-08	1.242602893211967e-07	-2.134236784413313e-08
1.03	-0.5451773271016866	-0.07683954852260405	0.5716274964939818	1.836006425974368	-0.468425796644911	0.0182119306410915	-0.2617819077685832	1.40004938279497	1.400049382794787	-0.08136813138620065	-0.1745312963875862	0.2328265557750246	-0.003945184812311471	0.02711042904843484	0.01755129530367657	0.06102334779191509	-0.2033048960184449	-0.004351859705536684	-0.06749669377835082	2.81879596889349e-05	-0.1559650526914567	-0.1559650526914724	-0.02112807716023227	-0.0002291739655174463	0.0001128511843717813	-0.004523067561154162	-0.3315679993166708	0.01866053055720817	0.0004983847481366876	-0.3071896175379999	0.03308206734590127	0.0267545645760402	0.2835061351665258	-29.30181627214158	-6.915941122062438	1.25437466720315	7.54544903426407	-642.9221802970468	-44.77185986062877	-1.121630905726145	1.47624515550204	0.2356771487246979	1.972710713792436	-6.779491260773652	-0.04295343204199953	-2.372386839264497	0.01177664586831789	-5.336016778059871	-5.336016778063278	-0.5400862279662105	0.02408749740406575	-0.7050568143129428	-0.4388890355128748	-1.872925157094797e-08	-4.437451377358006e-09	1.120476839224361e-07	6.177250323387048e-09	-3.132312405061548e-08	1.744591086231271e-07	-3.305842930909757e-08
1.04	-0.5448319086571759	-0.07665216328717672	0.572336307115817	1.833634045589799	-0.4684717418732766	0.0174191889043905	-0.2617815415349459	1.398222969720399	1.398222969720325	-0.08160772775746818	-0.1745327857664815	0.2327921895576154	-0.004012878255123153	0.04197702633349844	0.01993073559003944	0.08072762603101249	-0.2711467296713028	-0.004815902718858935	-0.0910289421325292	4.452605305633424e-05	-0.2093084065384203	-0.209308406538458	-0.02678267513972895	-4.402690823720231e-05	-0.006998806250693264	-0.008995683865707448	-0.3311837807303361	0.01883098372407852	0.0004507680384785169	-0.3068948092345862	0.03300099789257237	0.02684065627287158	0.2832366433472728	-29.30670730935724	-6.964428259143098	1.275759099412822	7.460814116443043	-642.6535395860177	-44.80235094532566	-1.153936728981034	1.506365783518137	0.2409801594013415	1.96921985666076	-6.800894855907103	-0.05967073937134018	-2.321673711598359	-0.01849204926391492	-5.333732668388486	-5.333732668388302	-0.6187391474911347	-9.044920344951357e-05	-0.7195708224742199	-0.4699629240670837	-2.611925425255019e-08	-1.128004962036254e-08	1.544378715048e-07	7.674411090185239e-09	-4.104289772326591e-08	2.221970977736572e-07	-4.435925682457015e-08
1.05	-0.5443376565174629	-0.07644080165095329	0.5732417500856104	1.830584116547199	-0.4685215644080234	0.01639196385125816	-0.2617810490727985	1.395863490048712	1.395863490048764	-0.08190356716146484	-0.1745315384736936	0.2326862698800516	-0.004124568108341588	0.056881552841842	0.02234964542010369	0.1003423515426675	-0.3387999041442317	-0.005112760306639142	-0.1143766171926154	5.248022148630366e-05	-0.2625696207466329	-0.2625696207466549	-0.03236929648295055	0.0003360363902084362	-0.01420286099575784	-0.01330620821639842	-0.3305114420453522	0.0190730378177042	0.0003711489971534374	-0.306452146055584	0.03299801506760543	0.02698799011809718	0.2827701316368063	-29.26616496903157	-7.055400116668739	1.312977168121119	7.30282015991146	-642.0859190973438	-44.89009750650912	-1.196360955077562	1.483713228995412	0.2435563104200482	1.95479619116997	-6.741659072499162	-0.009336198566959135	-2.335431220866115	0.01021622658681141	-5.319618495697779	-5.319618495695519	-0.5262577385087729	0.06348636181931472	-0.7234822776785028	-0.4062057433920651	-3.350341369587838e-08	-1.811614184157687e-08	1.968100370143616e-07	9.177797555751558e-09	-5.075687469969355e-08	2.69858185981956e-07	-5.56471082791211e-08
1.06	-0.5436941156837664	-0.07620500893330696	0.5743427797690709	1.826858829693969	-0.468573284104665	0.0151324386839944	-0.2617805216536266	1.392971937695211	1.392971937695385	-0.08225479960104699	-0.1745252042194511	0.232507777759606	-0.004278284915631348	0.07183476513030476	0.02481695187461993	0.1198449687644096	-0.4062182917976946	-0.005195335097844077	-0.1374889649587985	5.151745753123756e-05	-0.315722942901251	-0.3157229429012579	-0.03786128225701718	0.0009733653866819268	-0.02151329482705948	-0.01740107467996935	-0.3298391033603523	0.01931509191133155	0.0002915299558726466	-0.3060094828765831	0.03299503224263568	0.02713532396332259	0.2823036199263563	-29.23161829862278	-7.145228820117527	1.34990643430722	7.168113193466455	-641.6030757189893	-44.95711175729338	-1.249403050619904	1.516102939541957	0.2506594842917577	1.946798198678157	-6.753937492013929	-0.01681418005632736	-2.274608252817791	-0.0202754357409354	-5.312154257669571	-5.312154257669505	-0.599812033660158	0.05136269040204404	-0.7408466397216072	-0.426831346643114	-3.997557024678926e-08	-2.298359023647349e-08	2.38658407601975e-07	1.134822753378838e-08	-5.983901182177453e-08	3.131240580368367e-07	-6.577472854825609e-08
1.07	-0.5429007851611307	-0.07594427524071941	0.5756381986568682	1.822460711551499	-0.4686246231022462	0.01364315804191305	-0.261780061479073	1.389549471765307	1.38954947176534	-0.08266044054577644	-0.1745110453514273	0.2322555892693908	-0.004471731627406386	0.08683905763804989	0.02734019587546122	0.139212505264003	-0.4733465322123483	-0.005020084773121669	-0.1603076904491952	3.9594919681139e-05	-0.3687447487964154	-0.3687447487964114	-0.04324323705622513	0.001923960958926614	-0.02894728648298408	-0.02123373980606878	-0.3288389141892972	0.01962677048775852	0.000180476515527318	-0.3054532264662036	0.03312096612255457	0.02732885518221729	0.2816073620558368	-29.13528738580435	-7.273070429409546	1.40104168192528	6.953700602795336	-640.8103540555368	-45.07316661908224	-1.313732568194667	1.493742762997711	0.2547209849359114	1.927771940476394	-6.683455378483449	0.04252239771482309	-2.2766311843937	0.008210957142703855	-5.293354302489925	-5.293354302488339	-0.503864097904163	0.1268097938417289	-0.7481072504533929	-0.3533336421077382	-4.639921600555028e-08	-2.774632353422554e-08	2.804789167575698e-07	1.355413854972258e-08	-6.888754044096472e-08	3.561561419984506e-07	-7.584063439263489e-08
1.08	-0.5419571816420961	-0.07565799628273227	0.5771265010226367	1.817393073392422	-0.468672644044785	0.01192746484746718	-0.2617797482059077	1.385597555667043	1.385597555666936	-0.0831191964174766	-0.1744854001670059	0.2319283744982305	-0.00470187489974532	0.1018893644100731	0.02992600495453566	0.1584216643586582	-0.5401222951186956	-0.004531724089261425	-0.1827714754293179	2.213717982187223e-05	-0.4216129765735819	-0.4216129765735674	-0.04848426764955727	0.003270628659410729	-0.03651855101592895	-0.02474038679274557	-0.3278387250182704	0.01993844906415421	6.942307518135167e-05	-0.3048969700558233	0.03324690000246836	0.02752238640106822	0.2809111041852921	-29.04501121945014	-7.399700621763585	1.451811131755248	6.762516308715295	-640.1032034009229	-45.17031436533453	-1.390077085506119	1.525305792397545	0.2631724999384066	1.915122717690507	-6.683441990352658	0.04580789177120027	-2.203620150763019	-0.02138247614277594	-5.281438634069973	-5.281438634069984	-0.571627192485014	0.1305771160498571	-0.7683012151256383	-0.3616277187586223	-5.369660404366674e-08	-3.641174079073755e-08	3.192586824761391e-07	1.465082533864264e-08	-7.823985384972173e-08	3.958872032601772e-07	-8.622324685784654e-08
